<svg width="120" height="100" viewBox="0 0 120 100" fill="none" xmlns="http://www.w3.org/2000/svg">
<g id="triangles" clip-path="url(#clip0_1_2)">
<g id="LightGroup">
<path id="Light1" opacity="0.8" d="M60.573 43.7085C59.408 45.6517 56.592 45.6517 55.427 43.7085L37.3409 13.5426C36.142 11.5431 37.5824 9 39.9139 9L76.0861 9C78.4176 9 79.858 11.5431 78.6591 13.5426L60.573 43.7085Z" fill="#4585FF"/>
</g>
<g id="DarkGroup">
<path id="Dark2" d="M60.573 43.7085C59.408 45.6517 56.592 45.6517 55.427 43.7085L37.3409 13.5426C36.142 11.5431 37.5824 9 39.9139 9L76.0861 9C78.4176 9 79.858 11.5431 78.6591 13.5426L60.573 43.7085Z" fill="#0057FF" fill-opacity="0.8"/>
<path id="Dark1" d="M60.573 55.7085C59.408 57.6517 56.592 57.6517 55.427 55.7085L37.3409 25.5426C36.142 23.5431 37.5824 21 39.9139 21L76.0861 21C78.4176 21 79.858 23.5431 78.6591 25.5426L60.573 55.7085Z" fill="#0057FF" fill-opacity="0.8"/>
</g>
</g>
<defs>
<clipPath id="clip0_1_2">
<rect width="120" height="100" fill="white"/>
</clipPath>
</defs>
</svg>
